<?xml version="1.0" standalone="no"?>
<!DOCTYPE svg PUBLIC "-//W3C//DTD SVG 20010904//EN"
 "http://www.w3.org/TR/2001/REC-SVG-20010904/DTD/svg10.dtd">
<svg version="1.0" xmlns="http://www.w3.org/2000/svg"
 width="640.000000pt" height="640.000000pt" viewBox="0 0 640.000000 640.000000"
 preserveAspectRatio="xMidYMid meet">
<metadata>
Created by potrace 1.11, written by Peter Selinger 2001-2013
</metadata>
<g transform="translate(0.000000,640.000000) scale(0.100000,-0.100000)"
fill="#000000" stroke="none">
<path d="M2220 6358 c-17 -22 -35 -60 -40 -82 -12 -45 -42 -116 -50 -116 -3 0
-16 -20 -30 -45 -14 -25 -28 -45 -32 -45 -5 0 -8 -8 -8 -18 0 -10 -5 -23 -11
-29 -6 -6 -17 -22 -23 -34 -10 -21 -22 -25 -126 -35 -139 -14 -181 -25 -285
-74 -157 -74 -274 -204 -329 -364 -60 -175 -39 -350 60 -496 25 -36 33 -103
14 -115 -5 -3 -22 -31 -37 -61 -14 -30 -30 -54 -35 -54 -16 0 -7 -22 20 -45
15 -13 21 -25 15 -25 -8 0 -5 -10 9 -25 11 -13 25 -22 30 -19 4 3 8 1 8 -5 0
-5 -10 -11 -22 -13 -19 -2 -24 -10 -26 -42 -2 -21 1 -43 7 -49 13 -13 -4 -47
-24 -47 -8 0 -19 -9 -25 -20 -6 -11 -18 -20 -26 -20 -8 0 -12 -5 -9 -11 5 -7
13 -5 24 5 20 18 61 11 61 -11 0 -10 -6 -12 -21 -8 -15 5 -20 3 -17 -6 2 -7
15 -16 29 -19 17 -4 20 -8 9 -12 -20 -7 -80 2 -80 13 0 5 -4 9 -9 9 -12 0 13
-50 31 -61 26 -16 -2 -21 -33 -5 -18 9 -38 16 -46 16 -17 0 -17 -19 1 -26 7
-3 12 -16 11 -29 -2 -16 3 -25 18 -30 19 -6 17 -8 -15 -14 -22 -5 -50 -22 -72
-44 -20 -21 -36 -39 -36 -41 0 -3 14 -8 31 -11 21 -5 27 -10 19 -15 -9 -6 -8
-11 6 -19 17 -10 15 -10 -8 -5 -20 4 -27 2 -30 -12 -3 -16 -4 -17 -20 -1 -20
21 -32 21 -48 2 -8 -10 -29 -13 -76 -11 -35 1 -64 0 -64 -3 0 -3 -64 -5 -142
-4 -79 1 -188 2 -243 2 -55 0 -113 1 -130 2 -38 3 -66 3 -140 1 -33 -1 -98 -1
-145 1 -47 2 -90 -1 -97 -6 -9 -6 -12 -91 -13 -322 l0 -314 52 1 c66 1 101 -9
94 -28 -3 -8 -2 -14 3 -14 4 0 6 -11 4 -24 -3 -13 0 -33 6 -43 7 -14 7 -23 -1
-31 -9 -9 -9 -15 0 -24 15 -15 16 -48 1 -48 -7 0 -8 -14 -4 -40 5 -28 3 -40
-5 -40 -9 0 -9 -4 -2 -13 13 -15 7 -134 -8 -173 -6 -14 -8 -29 -5 -33 2 -5 84
-12 182 -16 98 -4 196 -9 218 -10 22 -1 123 -6 225 -10 118 -5 188 -11 192
-19 4 -6 8 -7 8 -1 0 14 44 16 187 9 96 -5 123 -9 127 -21 7 -18 -20 -42 -47
-43 -10 0 -20 -7 -23 -15 -4 -8 -12 -15 -19 -15 -19 0 -48 -38 -42 -55 5 -11
0 -15 -21 -15 -21 0 -24 -2 -12 -10 23 -15 -26 -52 -60 -45 -19 4 -32 -2 -53
-24 -15 -16 -41 -35 -57 -43 -17 -7 -30 -19 -30 -26 0 -7 -11 -18 -25 -24 -14
-6 -25 -17 -25 -25 0 -7 -7 -13 -15 -13 -8 0 -15 -6 -15 -14 0 -26 -129 -177
-178 -207 -18 -12 -50 -51 -73 -90 -23 -39 -54 -83 -68 -98 -28 -31 -78 -126
-107 -206 -10 -27 -23 -60 -30 -73 -13 -26 -7 -72 10 -73 6 0 1 -4 -11 -9 -26
-11 -30 -28 -8 -36 8 -4 12 -11 8 -17 -11 -18 -3 -90 12 -107 8 -9 15 -22 15
-28 0 -6 15 -23 34 -37 19 -14 39 -38 45 -54 15 -35 52 -48 163 -56 l87 -7
104 56 c57 30 110 63 117 72 8 8 46 33 85 54 39 22 80 48 92 59 12 11 61 53
110 94 48 40 114 106 147 145 32 40 62 72 67 72 6 0 18 20 29 45 12 27 26 45
36 45 14 0 14 2 3 16 -11 13 -6 22 36 60 33 30 55 42 67 38 13 -4 16 -1 12 10
-4 12 0 16 17 17 16 1 18 3 8 6 -11 2 -15 11 -12 23 4 14 18 20 66 25 34 4 78
16 98 26 31 15 41 16 63 6 14 -7 26 -16 26 -21 0 -5 8 -18 17 -29 10 -10 18
-26 18 -35 0 -10 10 -18 23 -20 18 -3 23 -8 19 -23 -3 -13 0 -22 10 -26 12 -5
12 -7 1 -14 -10 -6 -9 -11 7 -23 19 -13 19 -15 3 -21 -10 -4 -18 -13 -18 -20
0 -8 -8 -11 -19 -8 -16 4 -19 1 -14 -17 4 -16 0 -23 -16 -27 -12 -3 -20 -11
-17 -18 5 -13 -19 -37 -48 -48 -10 -4 -16 -13 -13 -20 3 -8 1 -20 -4 -28 -7
-11 -9 -9 -9 9 0 12 -5 22 -10 22 -6 0 -8 -11 -6 -25 3 -13 1 -27 -4 -30 -5
-3 -6 -13 -3 -22 5 -13 1 -15 -24 -11 -16 2 -35 -2 -41 -9 -18 -19 -14 -24 13
-17 15 4 25 2 25 -5 0 -6 -4 -11 -9 -11 -5 0 -27 -27 -48 -61 -69 -111 -117
-180 -148 -213 -11 -12 -19 -30 -17 -39 2 -11 -3 -17 -13 -17 -11 0 -15 -5
-11 -15 3 -9 -3 -20 -14 -27 -14 -9 -16 -16 -8 -25 8 -10 6 -13 -10 -13 -24 0
-37 -16 -22 -25 15 -9 2 -25 -15 -19 -18 7 -33 -25 -16 -35 13 -8 5 -38 -16
-60 -8 -7 -11 -22 -8 -32 4 -13 2 -19 -9 -19 -10 0 -13 -6 -10 -15 5 -11 -1
-15 -22 -16 l-29 -1 25 -8 c14 -4 19 -8 12 -9 -7 -1 -12 -7 -11 -14 3 -26 -2
-37 -17 -37 -8 0 -12 5 -9 10 3 6 -1 10 -9 10 -8 0 -18 -5 -22 -11 -8 -13 15
-31 29 -22 5 3 7 -3 5 -13 -2 -10 -12 -19 -23 -20 -45 -2 -55 -4 -55 -14 0 -5
9 -10 19 -10 15 0 31 -18 31 -35 0 -2 -21 -2 -47 0 -27 2 -40 1 -31 -2 9 -2
20 -17 23 -33 4 -17 11 -32 16 -35 17 -11 9 -27 -11 -22 -25 6 -25 -1 -3 -26
17 -18 17 -19 0 -32 -10 -7 -15 -19 -11 -29 5 -13 0 -16 -24 -16 -17 0 -34 -4
-37 -10 -4 -6 5 -10 19 -10 30 0 35 -24 8 -35 -16 -6 -16 -7 1 -16 25 -15 21
-28 -9 -26 -15 1 -29 -4 -32 -12 -3 -10 2 -12 22 -7 14 3 26 2 26 -3 0 -13
-27 -21 -76 -21 -34 0 -42 -3 -38 -15 4 -10 -3 -16 -23 -21 -15 -3 -37 -8 -48
-11 -32 -9 -331 -4 -680 12 -406 18 -385 18 -385 1 0 -10 15 -17 43 -20 144
-20 684 -65 789 -67 35 -1 74 -4 88 -8 l24 -7 -24 -17 c-13 -9 -28 -17 -33
-17 -23 0 -188 -117 -302 -214 -90 -77 -124 -115 -131 -146 -3 -14 -10 -36
-15 -49 -5 -13 -7 -31 -4 -41 3 -10 1 -21 -5 -25 -8 -5 -8 -11 1 -21 10 -12
438 -14 2990 -14 l2979 0 0 284 0 284 -27 6 c-119 25 -265 38 -448 41 -115 2
-227 4 -247 4 -24 1 -46 9 -58 21 -12 12 -32 25 -46 31 -22 8 -24 12 -14 24
10 12 9 15 -6 16 -11 0 -31 2 -46 4 -19 2 -28 -1 -28 -11 0 -8 5 -14 11 -14 5
0 7 -4 4 -10 -3 -5 -15 -10 -26 -10 -10 0 -19 -4 -19 -10 0 -5 17 -10 38 -10
21 0 32 -4 25 -8 -7 -4 -27 -8 -44 -7 -28 0 -32 4 -33 28 -1 18 3 27 14 27 12
1 11 4 -4 15 -31 24 -46 18 -46 -16 0 -24 -4 -30 -17 -27 -10 2 -17 10 -15 16
1 7 -5 15 -13 18 -24 9 -18 24 10 24 14 0 25 5 25 11 0 8 -17 9 -55 4 -53 -6
-76 5 -39 19 14 5 13 10 -10 33 -14 14 -26 34 -26 44 0 16 8 19 63 20 l62 0
-33 17 c-26 13 -37 14 -52 4 -22 -13 -37 1 -32 31 3 16 -4 20 -66 42 -7 3 -10
9 -7 15 4 6 11 7 17 4 6 -4 35 -8 64 -10 43 -2 52 1 47 13 -5 11 -15 14 -44 9
-23 -4 -40 -2 -44 5 -4 6 -13 8 -20 5 -8 -3 -19 3 -27 12 -9 11 -10 14 0 8 7
-4 12 -2 12 6 0 9 4 8 16 -3 9 -10 25 -14 40 -11 24 4 24 5 8 23 -10 11 -12
19 -6 19 7 0 12 5 12 10 0 6 -9 10 -21 10 -16 0 -19 -4 -15 -17 6 -15 4 -14
-14 2 -19 17 -19 20 -4 28 8 5 30 7 47 4 18 -2 41 0 52 6 17 9 13 12 -30 23
-28 7 -57 11 -65 9 -8 -3 -22 0 -30 5 -12 8 -12 10 3 16 9 3 23 4 31 1 8 -3
20 1 27 9 10 12 9 16 -9 21 -12 3 -22 9 -22 14 0 13 97 11 122 -2 16 -9 19 -8
16 3 -3 7 -13 14 -24 16 -10 2 -26 6 -34 9 -28 11 -44 12 -56 2 -8 -7 -14 -6
-19 1 -8 13 3 30 21 30 8 0 14 4 14 9 0 14 32 23 44 11 5 -5 19 -10 30 -9 19
0 18 2 -4 12 -14 6 -28 16 -31 21 -4 5 -17 9 -30 10 -12 0 -24 7 -27 15 -4 11
4 13 37 7 42 -6 58 7 21 19 -11 3 -20 11 -20 17 0 5 -8 7 -17 4 -15 -5 -15 -4
1 9 12 9 29 12 44 8 17 -4 23 -2 18 5 -4 6 -22 14 -41 18 -25 4 -35 12 -35 25
0 15 6 18 30 15 38 -4 38 2 0 15 -35 13 -30 32 6 23 14 -4 24 -2 24 5 0 6 -11
11 -24 11 -38 0 -40 18 -4 29 23 6 27 10 13 11 -11 1 -23 2 -27 1 -5 0 -8 7
-8 17 0 10 -5 23 -10 28 -13 13 -21 46 -26 108 -2 26 -13 61 -24 76 -11 16
-20 35 -20 42 0 8 -3 18 -7 21 -16 17 -40 106 -31 115 6 6 6 12 -1 16 -6 4
-11 22 -11 41 0 19 -4 37 -10 40 -5 3 -10 17 -10 31 0 14 -5 34 -10 44 -6 10
-6 21 -2 24 14 8 54 -25 48 -39 -2 -7 4 -15 14 -18 11 -3 25 -18 32 -34 7 -15
19 -32 26 -36 16 -11 92 -164 92 -187 0 -9 9 -25 19 -34 11 -10 22 -28 25 -42
4 -13 10 -24 15 -24 5 0 13 -15 16 -33 4 -17 11 -34 15 -37 14 -9 101 -141
131 -199 39 -73 51 -92 71 -111 18 -17 68 -109 68 -125 0 -6 20 -33 45 -60 24
-27 42 -51 40 -54 -3 -2 12 -23 33 -47 20 -23 53 -63 72 -88 45 -60 127 -146
139 -146 5 0 14 -7 21 -15 7 -9 19 -14 25 -11 7 2 17 0 22 -5 6 -6 34 -13 64
-16 46 -4 57 -2 73 16 11 11 27 21 37 21 22 0 87 28 111 49 10 8 18 24 18 37
0 12 6 29 14 37 15 14 19 110 5 102 -9 -6 -6 22 4 31 10 10 9 144 -1 144 -5 0
-8 21 -8 48 0 32 -6 56 -19 74 -23 31 -48 38 -38 11 6 -16 5 -16 -10 -4 -23
18 -21 42 3 48 27 7 25 23 -2 23 -20 1 -21 2 -6 10 15 9 14 13 -8 35 -30 30
-54 32 -54 5 0 -12 7 -20 17 -20 9 0 14 -3 10 -6 -7 -7 -37 2 -59 20 -14 10
-16 19 -9 44 7 24 6 32 -6 36 -8 3 -11 10 -8 16 9 15 45 12 45 -4 0 -16 24
-38 32 -30 14 13 -27 66 -63 82 -21 9 -39 21 -39 26 0 5 -8 15 -17 22 -14 10
-16 17 -7 31 6 10 9 33 6 51 -3 26 -1 32 14 32 23 0 84 -50 84 -68 0 -7 -4
-10 -10 -7 -21 13 -28 -6 -13 -35 14 -30 27 -35 57 -24 22 8 21 59 -1 83 -56
60 -64 71 -58 81 4 6 1 11 -6 9 -31 -4 -39 2 -39 27 0 19 -4 25 -14 21 -16 -6
-43 19 -32 30 3 3 18 0 33 -8 46 -22 49 -23 34 -6 -7 10 -20 17 -27 17 -12 0
-16 7 -13 26 0 3 -13 18 -30 33 -19 17 -29 34 -26 43 4 9 -9 35 -29 62 -20 25
-36 52 -36 59 -1 22 -34 53 -70 64 -33 10 -34 11 -13 19 l23 9 -23 33 c-22 32
-44 44 -34 18 4 -10 0 -12 -14 -9 -22 6 -25 23 -7 41 10 10 6 18 -17 37 -22
18 -26 24 -13 25 15 0 15 3 1 31 -8 17 -21 33 -29 36 -8 3 -14 10 -14 16 0 29
-43 96 -65 101 -31 8 -32 24 -2 35 21 9 21 9 -8 17 -32 8 -74 34 -75 47 0 4 9
7 19 7 10 0 22 7 25 16 9 24 7 54 -4 54 -5 0 -10 -9 -10 -21 0 -37 -24 -14
-26 24 0 24 -8 43 -20 53 -17 13 -16 13 16 2 20 -8 74 -13 123 -13 80 1 88 -1
102 -22 14 -21 43 -35 31 -14 -4 5 -3 17 1 26 5 15 15 17 60 12 30 -3 61 -11
69 -18 13 -10 17 -10 25 2 8 12 10 12 18 0 5 -7 14 -10 20 -6 7 4 23 0 36 -9
15 -10 26 -12 30 -6 3 6 3 10 -2 11 -4 1 3 4 16 8 14 4 58 3 100 -1 41 -4 79
-5 83 -2 4 3 8 142 8 310 l0 304 -42 0 c-101 0 -749 21 -807 26 -46 4 -60 9
-52 17 8 8 92 8 308 -1 164 -7 364 -12 446 -12 l147 0 0 141 0 141 -42 -7
c-24 -4 -50 -13 -59 -21 -9 -8 -19 -11 -22 -8 -4 4 -13 1 -22 -6 -12 -10 -16
-10 -20 2 -3 8 -5 21 -3 28 2 9 -10 14 -39 15 -51 1 -57 7 -49 38 5 23 8 24
58 16 29 -5 86 -8 126 -8 l72 1 0 287 0 286 -152 2 c-128 1 -357 12 -393 18
-5 1 -22 3 -37 3 l-27 2 5 75 c3 41 2 81 -2 87 -5 7 -9 22 -10 33 -3 23 -16
279 -18 342 0 22 -4 45 -8 49 -5 4 -8 24 -8 44 0 20 -4 40 -10 46 -5 5 -11 32
-13 59 -2 28 -6 57 -9 65 -15 41 -28 101 -28 129 0 34 -45 153 -91 244 -6 10
-7 22 -4 27 3 5 1 11 -5 15 -5 3 -10 13 -10 22 0 9 -11 39 -24 67 -91 191
-116 249 -116 261 0 8 -4 15 -8 15 -4 0 -14 16 -21 36 -17 48 -79 157 -97 170
-7 6 -14 18 -14 27 0 9 -6 20 -13 24 -10 7 -29 33 -107 148 -8 13 -30 44 -49
69 l-34 46 -693 0 -692 0 -11 -30 c-5 -16 -14 -30 -19 -30 -5 0 -12 -9 -15
-19 -8 -33 -49 -50 -150 -62 -101 -12 -240 0 -262 22 -5 5 -10 33 -10 62 l0
52 -132 3 c-124 2 -133 1 -143 -18 -14 -26 -40 -26 -40 0 0 18 -7 20 -56 20
-36 0 -61 -5 -70 -15 -9 -8 -21 -15 -27 -15 -7 0 -6 4 3 10 19 12 8 23 -14 14
-10 -4 -14 -13 -11 -24 8 -27 -32 -33 -56 -9 -10 10 -19 24 -19 29 0 6 -78 10
-215 10 l-215 0 -30 -42z m1252 -203 c74 -26 146 -99 197 -201 24 -49 49 -102
56 -119 7 -16 22 -52 34 -80 11 -27 23 -66 25 -85 5 -51 17 -100 27 -106 5 -3
9 -16 9 -29 0 -13 5 -27 11 -31 8 -4 7 -9 -2 -15 -12 -8 -11 -11 1 -19 10 -6
11 -10 3 -10 -10 0 -13 -37 -13 -154 l0 -153 24 4 c16 3 31 -2 45 -16 15 -15
28 -20 46 -15 17 4 27 1 31 -10 10 -25 93 -67 120 -60 19 5 26 1 36 -22 20
-49 48 -74 75 -68 25 7 30 -5 11 -24 -19 -19 0 -27 20 -9 18 16 20 16 35 -1
19 -21 23 -62 6 -62 -5 0 -7 -5 -3 -12 6 -9 9 -9 12 0 2 7 7 12 12 12 12 0 19
-25 10 -40 -6 -10 -14 -9 -39 6 -25 14 -29 23 -24 42 5 21 3 23 -14 18 -15 -5
-22 -1 -26 13 -3 12 -17 22 -38 26 -19 4 -46 14 -61 21 -22 12 -27 11 -32 -2
-8 -21 -28 -6 -21 16 5 15 2 17 -17 12 -21 -5 -22 -4 -9 12 12 14 12 19 1 29
-10 9 -13 9 -17 0 -5 -15 -33 -17 -33 -3 0 5 -8 9 -17 8 -44 -3 -62 2 -57 17
4 8 1 15 -5 15 -6 0 -11 -4 -11 -10 0 -14 -28 -12 -33 3 -3 9 -7 9 -20 -2 -15
-11 -17 -11 -17 2 0 16 -40 30 -63 21 -8 -3 -17 2 -21 12 -5 12 -14 15 -35 11
-29 -6 -74 18 -94 51 -6 8 -18 11 -32 8 -17 -4 -32 2 -54 23 -17 16 -31 23
-31 16 0 -12 -21 -25 -40 -25 -5 0 -21 12 -36 27 -18 18 -29 23 -32 15 -2 -7
-12 -12 -23 -12 -10 0 -19 -4 -19 -10 0 -5 -9 -10 -20 -10 -15 0 -20 -7 -20
-26 0 -17 6 -28 20 -31 11 -3 20 -10 20 -16 0 -7 4 -7 12 1 7 7 25 12 40 12
15 0 28 5 28 10 0 16 27 12 34 -5 3 -8 12 -15 21 -15 15 0 85 -63 85 -76 0
-20 36 -44 66 -44 25 0 39 -8 58 -32 l26 -33 30 17 c29 17 31 17 48 -2 9 -11
27 -20 40 -20 19 0 22 -4 18 -22 -3 -13 -3 -17 0 -10 8 17 29 15 44 -3 7 -9
19 -14 26 -11 6 2 14 -4 17 -15 3 -11 14 -19 27 -19 16 0 20 -4 15 -19 -4 -14
1 -20 22 -24 16 -3 32 -15 38 -29 6 -15 18 -23 33 -22 12 0 22 -5 22 -13 0 -7
5 -13 11 -13 19 0 100 -93 94 -108 -3 -8 0 -21 6 -28 6 -8 9 -14 5 -14 -3 0 2
-9 11 -19 9 -11 22 -17 29 -14 8 3 14 -1 14 -8 0 -7 12 -24 28 -36 15 -13 20
-20 9 -17 -13 5 -16 2 -11 -10 4 -10 1 -16 -9 -16 -9 0 -24 -3 -34 -6 -12 -4
-14 -3 -5 3 21 16 24 53 3 53 -26 0 -103 39 -96 50 3 4 -1 11 -7 14 -10 3 -8
9 5 20 31 24 8 51 -41 48 -37 -3 -40 -1 -45 27 -6 26 -11 31 -36 31 -28 0 -64
31 -90 77 -5 10 -22 16 -40 16 -17 0 -31 4 -31 8 0 4 -12 22 -27 39 -20 24
-32 31 -52 27 -14 -3 -35 -1 -48 4 -17 6 -25 4 -31 -8 -8 -13 -10 -11 -16 11
-3 14 -11 26 -16 26 -14 0 -12 -18 3 -23 6 -2 9 -8 5 -12 -13 -14 -70 7 -95
36 -15 16 -32 29 -39 29 -7 0 -29 25 -49 55 -39 58 -45 61 -76 45 -15 -9 -17
-15 -9 -30 14 -26 13 -30 -7 -30 -25 1 -129 74 -125 88 1 7 -10 17 -25 23 -15
6 -39 24 -54 42 l-26 31 -23 -22 c-28 -26 -22 -42 26 -67 22 -11 65 -46 96
-77 31 -32 61 -58 67 -58 6 0 11 -4 11 -8 0 -5 12 -15 28 -23 15 -7 50 -31 79
-51 29 -21 64 -43 79 -50 22 -10 23 -13 8 -18 -15 -5 -12 -10 14 -29 27 -19
37 -21 69 -12 28 8 41 7 52 -3 9 -7 21 -12 27 -9 12 4 40 -24 32 -32 -3 -3
-21 2 -41 10 -22 9 -37 11 -37 5 0 -5 5 -10 11 -10 5 0 7 -5 4 -10 -11 -19 15
-41 35 -30 16 9 77 7 87 -3 5 -6 -22 -34 -39 -39 -15 -5 -1 -28 16 -28 8 0 16
9 19 20 6 23 37 27 37 5 0 -16 41 -58 49 -49 3 3 -1 9 -9 14 -12 7 -11 10 5
16 11 5 20 3 22 -3 10 -29 52 -66 68 -59 18 6 77 -23 70 -35 -3 -3 13 -19 35
-34 37 -26 53 -55 30 -55 -5 0 -10 -7 -10 -15 0 -11 8 -13 33 -8 17 3 35 6 38
7 10 2 59 -57 59 -71 0 -7 -11 -15 -25 -19 -14 -3 -25 -10 -25 -14 0 -5 13 -5
29 0 16 4 32 6 35 2 11 -10 6 -22 -8 -22 -8 0 -17 -7 -20 -16 -4 -9 -13 -14
-21 -10 -8 3 -15 1 -15 -5 0 -13 53 -2 58 12 6 16 37 10 49 -10 10 -15 10 -21
0 -24 -7 -4 -6 -6 4 -6 20 -1 58 -41 39 -41 -9 0 -8 -5 4 -19 23 -25 18 -78
-9 -86 -19 -5 -19 -6 -2 -19 18 -14 18 -15 -2 -25 -11 -7 -32 -9 -47 -5 -17 4
-29 2 -35 -7 -6 -11 -11 -11 -21 -1 -9 9 -9 12 5 12 9 0 17 6 17 14 0 18 -36
10 -44 -10 -6 -17 -32 -18 -42 -3 -4 7 1 16 10 21 22 12 20 27 -3 21 -11 -3
-21 2 -24 11 -8 21 2 47 17 45 19 -3 46 12 46 27 0 8 5 14 10 14 6 0 10 5 10
10 0 16 -17 11 -46 -14 -26 -22 -29 -22 -56 -7 -26 14 -28 20 -23 50 5 29 4
33 -10 27 -44 -16 -65 -18 -65 -4 0 8 5 19 12 26 9 9 9 12 -2 12 -10 0 -9 4 3
18 10 10 17 27 17 37 0 17 -1 17 -19 1 -15 -14 -24 -15 -40 -6 -25 13 -27 26
-6 34 8 3 15 12 15 21 0 13 -7 15 -33 10 -24 -5 -37 -2 -47 10 -11 14 -11 18
-1 25 10 6 8 10 -8 15 -11 3 -21 13 -21 21 0 9 -6 22 -14 29 -12 12 -16 12
-25 1 -7 -8 -8 -17 -3 -20 5 -3 7 -18 5 -33 -4 -23 4 -37 36 -71 23 -23 41
-49 41 -58 0 -9 9 -25 21 -35 14 -12 19 -24 14 -39 -5 -17 -1 -23 24 -33 17
-6 29 -17 27 -24 -3 -6 -8 -28 -12 -47 -5 -28 -3 -37 10 -42 9 -3 16 -15 16
-25 0 -10 7 -19 15 -19 18 0 20 -17 3 -23 -9 -3 -8 -10 6 -26 11 -11 14 -21 8
-21 -16 0 -41 -56 -31 -71 19 -31 10 -40 -22 -24 -29 15 -30 17 -13 30 16 11
17 17 5 54 -6 23 -9 45 -6 50 6 10 -72 81 -89 81 -5 0 1 10 14 23 l25 22 -23
3 c-29 4 -53 49 -33 62 11 6 9 12 -8 26 -11 10 -21 24 -21 31 0 7 -4 13 -10
13 -17 0 -70 88 -68 112 3 19 -1 23 -19 21 -13 -2 -23 2 -23 8 0 6 -7 26 -16
45 -12 24 -22 33 -33 29 -11 -3 -24 10 -45 48 -32 57 -52 76 -78 77 -10 0 -20
10 -24 23 -9 32 -59 70 -84 62 -34 -11 -23 -38 45 -110 36 -38 65 -73 65 -76
0 -4 9 -5 20 -2 16 4 20 0 20 -21 0 -16 6 -26 14 -26 22 0 53 -72 50 -119 -1
-29 2 -41 12 -41 8 0 14 -4 14 -10 0 -13 -6 -13 -30 0 -13 7 -19 6 -23 -4 -3
-7 -18 -16 -34 -19 -15 -3 -39 -9 -52 -13 -17 -5 -22 -4 -17 4 15 24 -77 45
-100 22 -5 -5 -15 -6 -24 0 -16 10 -12 12 49 28 19 4 37 14 39 21 3 10 -2 12
-22 7 -15 -4 -36 -1 -49 6 -12 7 -29 13 -37 13 -9 0 -16 11 -18 26 -2 20 -10
28 -31 32 -16 3 -42 9 -57 13 l-29 7 25 -21 c29 -25 15 -30 -18 -6 -16 11 -22
25 -22 51 0 32 -2 34 -16 22 -33 -27 -114 -13 -114 20 0 15 59 43 81 38 10 -3
25 4 36 16 18 20 18 20 -30 15 -26 -3 -49 -2 -52 2 -3 4 -20 11 -40 14 -47 9
-119 56 -105 70 17 17 11 42 -14 56 -28 14 -56 8 -56 -14 0 -20 -33 -9 -61 20
-12 13 -30 24 -38 24 -25 1 -58 29 -44 38 9 6 7 11 -7 20 -14 8 -21 8 -26 1
-4 -6 0 -15 7 -20 10 -6 8 -9 -8 -9 -16 0 -23 6 -23 20 0 11 -4 20 -10 20 -5
0 -10 7 -10 16 0 8 -5 12 -10 9 -6 -4 -8 -11 -5 -16 4 -5 -1 -9 -9 -9 -11 0
-16 10 -16 34 0 18 -7 39 -15 46 -20 16 -19 74 0 90 9 7 14 19 11 26 -3 7 -1
16 4 19 22 14 9 27 -20 22 -23 -5 -33 -2 -45 16 -20 29 -19 44 5 50 22 6 29
52 9 59 -9 3 -9 9 -1 25 20 37 25 126 13 239 -13 115 -30 167 -89 267 -40 66
-40 69 29 169 21 32 39 62 39 67 0 17 158 169 196 189 48 25 174 41 399 51 94
4 184 9 201 10 17 0 51 -6 76 -14z m1358 -40 c28 -64 47 -139 79 -310 60 -317
81 -506 87 -755 1 -74 10 -193 19 -265 9 -71 19 -158 22 -192 6 -68 -3 -133
-17 -133 -5 0 -38 20 -73 45 -48 33 -65 51 -65 68 1 12 0 36 -1 52 -1 17 0 64
2 105 2 41 0 125 -5 185 -5 61 -10 130 -12 155 -2 25 -7 94 -11 155 -4 68 -15
137 -30 185 -13 42 -26 115 -29 165 -3 50 -9 108 -14 130 -4 22 -5 78 -1 125
4 47 8 140 8 208 1 77 5 122 11 122 6 0 19 -20 30 -45z m-760 -160 c14 -16 10
-18 -14 -9 -9 3 -16 10 -16 15 0 14 16 11 30 -6z m227 -31 c-3 -3 -12 -4 -19
-1 -8 3 -5 6 6 6 11 1 17 -2 13 -5z m193 -66 c-12 -10 -32 -18 -44 -17 l-21 0
21 9 c12 4 24 15 27 24 4 10 13 13 23 9 15 -6 15 -8 -6 -25z m56 17 c4 -8 12
-15 19 -15 7 0 15 -7 19 -15 9 -25 -30 -17 -48 10 -19 28 -20 35 -6 35 6 0 13
-7 16 -15z m64 -55 c0 -5 -5 -10 -11 -10 -5 0 -7 5 -4 10 3 6 8 10 11 10 2 0
4 -4 4 -10z m-95 -31 c0 -7 -8 -15 -17 -17 -18 -3 -25 18 -11 32 10 10 28 1
28 -15z m41 -34 c3 -17 -12 -20 -21 -5 -7 12 4 34 13 25 3 -3 7 -12 8 -20z
m90 -17 c-1 -18 5 -24 26 -26 27 -3 27 -4 12 -28 -11 -16 -20 -21 -28 -15 -6
5 -15 10 -21 11 -5 2 -14 4 -20 5 -5 2 -27 6 -47 10 -21 3 -38 11 -38 17 0 6
9 8 20 5 14 -4 20 0 20 12 0 25 9 31 45 31 26 0 31 -4 31 -22z m-788 -30 c7
-7 12 -18 12 -25 0 -11 -4 -11 -20 -1 -11 7 -20 18 -20 25 0 16 12 17 28 1z
m624 -70 c-6 -6 -15 -8 -19 -4 -4 4 -1 11 7 16 19 12 27 3 12 -12z m37 -39
c-24 -15 -29 -10 -11 11 10 12 18 16 21 9 2 -6 -3 -15 -10 -20z m31 -23 c0 -2
-7 -6 -15 -10 -8 -3 -15 -1 -15 4 0 6 7 10 15 10 8 0 15 -2 15 -4z m75 -6 c3
-5 1 -10 -4 -10 -6 0 -11 5 -11 10 0 6 2 10 4 10 3 0 8 -4 11 -10z m-170 -30
c-3 -5 -15 -10 -26 -10 -11 0 -17 5 -14 10 3 6 15 10 26 10 11 0 17 -4 14 -10z
m135 1 c0 -12 -25 -21 -58 -21 -42 0 -4 24 46 29 6 0 12 -3 12 -8z m-216 -36
c-4 -10 -11 -12 -22 -6 -10 4 -24 11 -32 14 -8 3 2 6 22 6 29 1 36 -2 32 -14z
m306 11 c0 -2 -7 -9 -15 -16 -13 -11 -14 -10 -9 4 5 14 24 23 24 12z m-55 -62
c-11 -21 -24 -33 -32 -30 -7 3 -13 -1 -13 -8 0 -12 -30 -33 -34 -24 -1 2 -7
13 -13 25 -21 36 -16 60 12 65 14 3 28 2 30 -3 3 -4 17 -1 32 6 36 19 41 11
18 -31z m-297 6 c-4 -24 -1 -30 13 -30 10 0 21 -4 24 -10 10 -15 -49 -12 -81
5 l-29 15 33 0 c31 0 42 12 22 25 -12 7 -4 25 12 25 6 0 8 -13 6 -30z m-58 -5
c0 -2 -7 -5 -15 -9 -9 -3 -15 0 -15 9 0 9 6 12 15 9 8 -4 15 -7 15 -9z m325
-75 c3 -5 1 -10 -4 -10 -6 0 -11 5 -11 10 0 6 2 10 4 10 3 0 8 -4 11 -10z m70
-30 c-3 -5 -10 -10 -16 -10 -5 0 -9 5 -9 10 0 6 7 10 16 10 8 0 12 -4 9 -10z
m-225 -4 c0 -11 -19 -15 -25 -6 -3 5 1 10 9 10 9 0 16 -2 16 -4z m126 -13 c10
-15 15 -16 25 -5 7 6 19 12 26 12 21 0 15 -21 -7 -27 -11 -3 -20 -12 -20 -19
0 -8 -4 -14 -10 -14 -5 0 -10 -7 -10 -16 0 -8 -4 -13 -9 -9 -6 3 -15 -4 -21
-15 -15 -28 -30 -25 -30 6 0 17 6 28 19 31 20 5 38 33 21 33 -6 0 -10 9 -10
20 0 25 9 25 26 3z m161 -38 c-2 -5 -13 -11 -25 -13 -12 -2 -20 -7 -17 -12 5
-8 -63 -50 -80 -50 -16 0 -1 22 25 35 17 9 30 22 30 30 0 8 7 15 15 15 8 0 15
7 15 15 0 13 3 13 20 3 11 -7 19 -17 17 -23z m17 -51 c3 -8 -8 -20 -30 -30
-29 -14 -33 -19 -20 -26 9 -5 16 -13 16 -17 0 -14 -43 -21 -57 -9 -10 8 -18 7
-31 -5 -20 -18 -36 -11 -44 19 -4 17 -2 20 12 17 10 -3 21 0 24 6 4 6 16 11
26 11 30 0 71 22 66 36 -3 7 -2 14 1 17 8 9 31 -3 37 -19z m-549 -164 c11 -17
-5 -32 -21 -19 -8 6 -14 15 -14 20 0 12 27 11 35 -1z m255 -79 c0 -23 18 -31
45 -20 11 4 37 8 58 8 49 1 46 -23 -4 -27 -19 -2 -38 -10 -42 -18 -4 -8 -16
-14 -26 -14 -21 0 -44 23 -34 33 3 4 2 7 -3 7 -6 0 -15 -5 -22 -12 -17 -17
-27 -2 -12 17 11 13 10 18 -6 30 -18 13 -17 14 14 15 25 0 32 -4 32 -19z
m-1815 -1 c3 -5 1 -10 -4 -10 -6 0 -11 5 -11 10 0 6 2 10 4 10 3 0 8 -4 11
-10z m2005 -91 c0 -4 -7 -6 -15 -3 -8 4 -15 10 -15 15 0 4 7 6 15 3 8 -4 15
-10 15 -15z m-147 -26 c-7 -2 -19 -2 -25 0 -7 3 -2 5 12 5 14 0 19 -2 13 -5z
m97 -3 c0 -5 7 -10 15 -10 8 0 15 -5 15 -11 0 -6 -7 -8 -16 -5 -9 3 -19 6 -24
6 -4 0 -10 7 -14 15 -3 9 0 15 9 15 8 0 15 -4 15 -10z m0 -45 c0 -8 -7 -15
-15 -15 -26 0 -18 20 13 29 1 1 2 -6 2 -14z m-220 -54 c0 -14 4 -32 9 -40 6
-9 4 -23 -6 -38 -17 -26 -33 -30 -33 -8 0 8 7 15 15 15 8 0 15 9 15 20 0 15
-7 20 -25 20 -14 0 -25 -4 -25 -10 0 -12 -47 -14 -54 -2 -3 5 13 28 35 51 32
36 41 41 54 31 8 -7 15 -24 15 -39z m-123 -13 c-3 -8 -6 -5 -6 6 -1 11 2 17 5
13 3 -3 4 -12 1 -19z m393 -28 c0 -5 -7 -10 -15 -10 -8 0 -15 5 -15 10 0 6 7
10 15 10 8 0 15 -4 15 -10z m-2020 -100 c0 -5 -5 -10 -11 -10 -5 0 -7 5 -4 10
3 6 8 10 11 10 2 0 4 -4 4 -10z m-1180 -20 c0 -5 -5 -10 -11 -10 -5 0 -7 5 -4
10 3 6 8 10 11 10 2 0 4 -4 4 -10z m-40 -30 c0 -6 -11 -8 -27 -4 -40 10 -41
14 -5 14 18 0 32 -5 32 -10z m3055 -10 c19 -21 13 -42 -7 -22 -13 13 -52 17
-44 4 2 -4 -4 -14 -15 -20 -18 -12 -19 -11 -11 5 5 10 7 23 5 30 -4 10 13 19
43 22 6 0 19 -8 29 -19z m-2884 -6 c11 -4 14 -14 11 -30 -5 -28 -27 -32 -35
-6 -2 9 -8 25 -12 36 -6 14 -5 17 6 12 8 -3 21 -9 30 -12z m-57 -54 c17 -16
-6 -29 -45 -25 -23 2 -37 0 -34 -6 4 -5 -1 -12 -10 -16 -10 -3 -21 0 -26 8
-12 19 -11 25 6 42 15 16 91 13 109 -3z m1584 -7 c2 -9 -7 -13 -28 -13 -28 0
-31 2 -20 15 15 18 41 16 48 -2z m-1718 -17 c0 -3 -4 -8 -10 -11 -5 -3 -10 -1
-10 4 0 6 5 11 10 11 6 0 10 -2 10 -4z m140 -81 c10 -12 10 -15 -1 -15 -37 0
-88 14 -83 21 9 15 71 10 84 -6z m2847 1 c3 -3 -5 -16 -18 -30 -31 -33 -68
-18 -69 28 0 16 6 18 41 13 22 -3 43 -8 46 -11z m-2957 0 c0 -11 -19 -15 -25
-6 -3 5 1 10 9 10 9 0 16 -2 16 -4z m2980 -73 c15 4 20 0 20 -14 0 -11 -7 -22
-15 -25 -19 -8 -19 -21 0 -40 16 -17 35 -11 35 12 0 8 5 14 10 14 6 0 10 -4
10 -10 0 -15 -22 -60 -30 -60 -4 0 -26 18 -50 40 -29 27 -38 40 -27 40 17 0
22 11 10 23 -3 4 -12 2 -19 -4 -13 -10 -34 -5 -34 9 0 14 45 28 57 19 7 -5 22
-7 33 -4z m-1054 -35 c-14 -10 -56 -10 -56 0 0 4 12 14 28 23 24 14 28 14 33
0 4 -9 1 -19 -5 -23z m-2116 -32 c0 -3 -4 -8 -10 -11 -5 -3 -10 -1 -10 4 0 6
5 11 10 11 6 0 10 -2 10 -4z m2500 -36 c0 -9 -7 -31 -16 -49 -15 -30 -15 -34
2 -52 13 -14 14 -23 7 -30 -8 -8 -14 -5 -22 10 -7 12 -18 21 -25 21 -8 0 -16
7 -20 15 -3 8 -17 15 -31 15 -15 0 -24 -4 -20 -10 10 -16 -5 -12 -32 10 -22
17 -23 21 -9 26 9 3 25 4 36 1 12 -3 20 0 20 8 0 7 6 16 13 19 6 3 26 15 42
25 34 20 55 17 55 -9z m-2476 2 c13 -7 -22 -20 -56 -21 -31 -1 -34 3 -15 24
11 13 46 11 71 -3z m231 -12 c3 -6 -1 -13 -10 -16 -19 -8 -30 0 -20 15 8 14
22 14 30 1z m1980 -19 c-6 -5 -25 10 -25 20 0 5 6 4 14 -3 8 -7 12 -15 11 -17z
m-80 -1 c3 -5 1 -10 -4 -10 -6 0 -11 5 -11 10 0 6 2 10 4 10 3 0 8 -4 11 -10z
m2465 -30 c0 -5 -4 -10 -9 -10 -6 0 -13 5 -16 10 -3 6 1 10 9 10 9 0 16 -4 16
-10z m-2074 -65 c-3 -11 -6 -27 -6 -35 -1 -17 -13 10 -24 53 -6 26 -5 27 14
15 14 -9 19 -20 16 -33z m-211 24 c4 -6 5 -12 3 -14 -7 -8 -87 8 -82 16 7 13
72 11 79 -2z m900 -7 c0 -18 -20 -15 -23 4 -3 10 1 15 10 12 7 -3 13 -10 13
-16z m-1035 -2 c0 -5 -2 -10 -4 -10 -3 0 -8 5 -11 10 -3 6 -1 10 4 10 6 0 11
-4 11 -10z m-2352 -39 c2 -12 1 -29 -2 -37 -5 -13 -9 -13 -29 1 -19 12 -54 15
-163 15 -425 0 -843 6 -850 13 -4 4 -1 8 7 9 8 0 28 3 44 5 65 8 191 8 202 0
7 -5 17 -5 24 -2 6 4 55 6 108 5 167 -5 472 -2 478 4 4 3 12 1 20 -5 17 -15
126 -6 131 10 6 19 27 7 30 -18z m2552 -6 c11 -13 9 -15 -11 -11 -13 3 -28 5
-32 5 -13 1 3 21 17 21 8 0 19 -7 26 -15z m203 -50 c-3 -8 -14 -15 -24 -15
-25 0 -24 -12 1 -28 11 -7 20 -17 20 -23 0 -6 7 -17 15 -26 20 -19 14 -26 -26
-28 -35 -2 -72 26 -81 62 -6 24 21 56 62 71 30 11 41 7 33 -13z m87 -46 c0 -5
-4 -9 -10 -9 -5 0 -10 7 -10 16 0 8 5 12 10 9 6 -3 10 -10 10 -16z m405 -9 c3
-5 -1 -10 -9 -10 -9 0 -16 5 -16 10 0 6 4 10 9 10 6 0 13 -4 16 -10z m-55 -10
c0 -5 -4 -10 -10 -10 -5 0 -10 5 -10 10 0 6 5 10 10 10 6 0 10 -4 10 -10z m90
-15 c0 -8 -7 -15 -15 -15 -8 0 -15 -7 -15 -15 0 -8 -3 -14 -7 -13 -9 1 -36 -8
-71 -25 -17 -8 -28 -8 -43 1 -10 7 -30 10 -44 6 -19 -5 -25 -2 -25 11 0 14 7
16 35 13 19 -2 36 0 38 6 2 5 11 7 21 3 10 -4 14 -12 11 -19 -4 -7 0 -6 7 3 7
9 27 19 45 23 17 4 34 14 37 22 7 19 26 18 26 -1z m-416 -27 c-4 -6 -10 -5
-15 3 -14 22 -10 33 6 19 8 -7 12 -17 9 -22z m-3601 5 c-13 -2 -33 -2 -45 0
-13 2 -3 4 22 4 25 0 35 -2 23 -4z m124 1 c-3 -3 -12 -4 -19 -1 -8 3 -5 6 6 6
11 1 17 -2 13 -5z m133 -4 c0 -5 -4 -10 -10 -10 -5 0 -10 5 -10 10 0 6 5 10
10 10 6 0 10 -4 10 -10z m188 -7 c-10 -2 -28 -2 -40 0 -13 2 -5 4 17 4 22 1
32 -1 23 -4z m75 0 c-7 -2 -19 -2 -25 0 -7 3 -2 5 12 5 14 0 19 -2 13 -5z
m-418 -52 c3 -5 1 -29 -4 -53 -6 -24 -11 -71 -12 -105 l-2 -63 -42 0 c-23 0
-90 3 -148 7 -96 5 -107 8 -107 25 0 10 -6 31 -13 46 -11 25 -12 39 -8 98 2
31 22 37 141 44 174 10 189 10 195 1z m3405 -17 c0 -9 8 -23 18 -30 23 -18 2
-17 -39 1 -19 8 -28 14 -21 15 6 0 12 7 12 15 0 8 7 15 15 15 8 0 15 -7 15
-16z m336 -19 c-22 -17 -36 -19 -36 -7 0 14 12 22 34 22 21 -1 21 -1 2 -15z
m67 -41 c3 -3 3 -12 0 -20 -4 -10 -10 -11 -24 -3 -10 5 -19 14 -19 19 0 11 33
14 43 4z m-233 -49 c10 -12 10 -15 -4 -15 -9 0 -16 7 -16 15 0 8 2 15 4 15 2
0 9 -7 16 -15z m-435 -5 c3 -5 1 -10 -4 -10 -6 0 -11 5 -11 10 0 6 2 10 4 10
3 0 8 -4 11 -10z m-2572 -24 c6 -8 10 -7 14 2 2 6 9 10 14 7 5 -4 3 -21 -5
-40 l-14 -33 30 1 c25 2 32 7 35 27 2 14 11 32 20 40 14 14 15 12 11 -12 -3
-15 -1 -25 3 -22 5 3 14 2 20 -2 8 -4 7 -9 -2 -14 -10 -7 -10 -11 0 -24 11
-13 11 -16 -3 -16 -9 0 -16 7 -16 15 0 17 -17 20 -22 4 -2 -6 -23 -12 -46 -14
-23 -1 -39 2 -36 6 3 5 -4 9 -15 9 -17 0 -20 5 -14 30 8 41 -3 38 -21 -5 -13
-29 -20 -35 -45 -35 -22 0 -31 5 -31 17 0 15 -1 15 -18 0 -21 -19 -48 -22 -57
-7 -3 6 3 10 14 10 13 0 23 11 31 34 8 26 18 36 38 39 39 5 106 -4 115 -17z
m5046 -25 c7 -5 10 -14 7 -20 -10 -16 -56 -14 -56 2 0 26 23 35 49 18z m-1979
-22 c0 -5 -4 -9 -10 -9 -5 0 -10 7 -10 16 0 8 5 12 10 9 6 -3 10 -10 10 -16z
m1874 5 c24 -9 19 -24 -8 -24 -26 0 -40 12 -29 24 8 8 17 8 37 0z m-2009 -64
c3 -5 -1 -10 -10 -10 -9 0 -13 5 -10 10 3 6 8 10 10 10 2 0 7 -4 10 -10z
m-234 -35 c-1 -15 -24 -12 -29 3 -3 9 2 13 12 10 10 -1 17 -7 17 -13z m296
-37 c-4 -13 29 -48 45 -48 4 0 8 -7 8 -15 0 -14 -4 -14 -32 1 -54 27 -59 33
-45 55 13 21 31 26 24 7z m1689 2 l44 0 0 -42 c0 -63 -8 -70 -89 -76 -61 -4
-71 -2 -71 12 0 9 -4 16 -9 16 -14 0 17 72 37 88 9 7 23 10 30 7 8 -3 34 -5
58 -5z m-189 -576 c-3 -3 -12 -4 -19 -1 -8 3 -5 6 6 6 11 1 17 -2 13 -5z m78
-84 c3 -5 -1 -10 -10 -10 -9 0 -13 5 -10 10 3 6 8 10 10 10 2 0 7 -4 10 -10z
m-375 -30 c0 -5 -4 -10 -10 -10 -5 0 -10 5 -10 10 0 6 5 10 10 10 6 0 10 -4
10 -10z m55 0 c3 -5 2 -10 -4 -10 -5 0 -13 5 -16 10 -3 6 -2 10 4 10 5 0 13
-4 16 -10z m336 -37 c13 -16 12 -17 -3 -4 -10 7 -18 15 -18 17 0 8 8 3 21 -13z
m-1405 -14 c23 -11 54 -35 68 -54 14 -18 35 -37 46 -40 11 -3 23 -17 26 -31 4
-14 13 -24 23 -24 19 0 41 -38 41 -69 0 -9 20 -39 45 -64 25 -26 45 -55 45
-65 0 -10 14 -35 32 -56 47 -57 116 -163 139 -212 11 -24 24 -44 29 -44 6 0
10 -9 10 -21 0 -12 11 -34 25 -51 16 -18 25 -42 25 -63 0 -19 6 -35 14 -38 8
-3 17 -24 21 -46 4 -23 11 -41 17 -41 7 0 9 -19 5 -54 -3 -33 -1 -56 5 -58 5
-2 9 -24 8 -48 -2 -70 -2 -103 0 -130 3 -33 -9 -150 -17 -162 -3 -6 1 -21 8
-34 11 -21 10 -32 -5 -75 -11 -31 -16 -62 -12 -81 3 -18 1 -37 -5 -44 -7 -9
-8 -19 -2 -26 8 -11 10 -72 4 -80 -1 -2 -4 -19 -7 -38 -5 -41 -42 -122 -61
-133 -7 -4 -13 -18 -13 -31 0 -13 -10 -31 -22 -39 -19 -14 -21 -18 -8 -26 12
-8 12 -12 -3 -29 -9 -10 -17 -23 -17 -29 0 -18 -34 -41 -73 -48 -21 -4 -44
-17 -52 -28 -17 -24 -81 -48 -113 -42 -13 2 -30 1 -38 -2 -21 -8 -5 -25 17
-18 10 4 19 3 19 -2 0 -19 -45 -45 -77 -45 -32 0 -34 -2 -31 -31 3 -28 -2 -34
-29 -47 -18 -8 -33 -20 -33 -25 0 -6 -13 -16 -29 -22 -22 -8 -30 -18 -33 -39
-2 -24 -7 -29 -28 -26 -39 5 -100 -19 -100 -38 0 -16 -47 -68 -56 -62 -2 1
-27 -9 -55 -23 -29 -13 -56 -22 -61 -19 -5 3 -15 0 -23 -6 -8 -7 -15 -9 -15
-6 0 4 -10 1 -22 -5 -24 -13 -138 -18 -138 -6 0 12 -28 8 -37 -5 -4 -7 -19
-19 -31 -26 -21 -12 -27 -11 -44 5 -15 13 -22 15 -25 5 -3 -6 -9 -10 -14 -6
-5 3 -9 0 -9 -6 0 -7 -8 -9 -20 -5 -12 4 -20 2 -20 -5 0 -6 4 -9 9 -5 5 3 13
0 16 -6 5 -7 -3 -8 -26 -4 -19 4 -44 7 -57 7 -19 0 -21 3 -11 14 9 11 9 18 1
26 -9 9 -12 9 -12 0 0 -7 -6 -12 -12 -11 -7 1 -28 -2 -46 -6 -26 -6 -31 -11
-27 -26 6 -17 1 -18 -72 -13 -43 2 -98 8 -123 11 -25 4 -53 5 -63 4 -10 -1
-27 5 -37 14 -10 9 -23 14 -29 11 -15 -10 -121 24 -128 40 -3 8 -16 14 -29 14
-15 0 -24 6 -24 15 0 9 -11 21 -25 27 -18 8 -25 20 -27 42 0 17 -2 37 -2 45
-1 10 -21 14 -74 16 -65 2 -76 5 -97 28 -13 14 -42 35 -65 48 -22 12 -40 26
-40 30 0 5 10 18 23 30 22 21 22 21 1 15 -18 -5 -22 -1 -27 24 -5 21 -12 30
-27 30 -26 0 -26 -30 0 -37 11 -3 20 -12 20 -19 0 -18 -32 -32 -38 -16 -2 7
-10 12 -17 12 -8 0 -19 9 -25 20 -6 11 -16 20 -22 20 -16 0 -37 32 -38 58 0
17 6 22 26 22 21 0 24 4 19 20 -7 22 5 26 23 8 9 -9 12 -8 12 6 0 9 -5 14 -11
11 -5 -4 -15 7 -21 23 -7 18 -27 39 -50 52 -21 12 -38 27 -38 34 0 6 -16 18
-35 25 -19 7 -35 16 -35 20 0 5 -10 12 -22 15 -22 6 -22 7 -5 20 23 18 7 66
-23 66 -21 0 -27 14 -10 25 16 10 12 22 -10 28 -27 7 -38 54 -15 71 16 11 16
16 4 50 -12 34 -12 39 5 51 10 8 20 29 22 47 8 76 23 182 28 195 3 7 16 13 28
13 15 0 19 3 11 8 -19 12 -3 52 23 63 28 10 33 33 5 24 -16 -5 -51 20 -40 28
36 26 64 38 66 30 2 -6 24 -9 50 -7 35 3 49 -1 59 -14 12 -15 12 -15 7 6 -3
13 -13 22 -24 22 -11 0 -19 5 -19 10 0 6 -7 10 -15 10 -8 0 -15 -4 -15 -10 0
-5 -4 -10 -9 -10 -4 0 -6 12 -3 26 4 24 7 26 45 20 35 -6 39 -5 27 9 -10 12
-10 15 1 16 10 0 11 2 1 6 -18 7 -4 23 20 23 16 0 18 -3 9 -14 -9 -10 -9 -16
-1 -21 11 -7 44 18 82 60 15 18 17 18 18 3 0 -24 30 -11 30 12 0 35 12 50 48
56 21 4 43 16 51 26 7 11 19 17 27 14 24 -9 42 4 36 27 -3 12 -1 19 3 15 9 -8
65 22 65 34 0 4 8 8 18 8 11 0 24 11 30 25 6 14 18 25 27 25 8 0 15 7 15 16 0
12 6 15 21 11 15 -4 23 0 26 14 4 15 12 18 39 15 22 -2 34 1 34 9 0 21 25 36
38 23 9 -9 12 -8 12 3 0 11 9 14 35 11 29 -4 34 -1 29 12 -4 12 0 16 15 16 12
0 21 -6 22 -12 0 -7 4 -3 9 10 7 17 16 22 36 19 14 -2 30 -10 35 -18 8 -11 12
-11 16 -1 6 14 33 16 33 2 0 -13 52 -1 62 13 3 6 42 11 86 12 46 0 86 6 95 13
8 7 37 19 64 27 53 16 124 78 163 143 11 18 24 32 29 32 6 0 18 14 28 30 9 17
25 30 35 30 10 0 18 7 18 18 1 25 22 47 49 50 32 3 39 11 21 23 -12 7 -10 10
9 16 24 6 24 6 3 14 -23 9 -30 29 -11 29 6 0 8 7 5 15 -3 9 1 18 9 21 8 3 28
27 44 53 17 26 42 58 56 71 14 13 25 28 25 33 0 19 51 77 67 77 9 0 36 -9 59
-21z m1494 -99 c0 -5 -2 -10 -4 -10 -3 0 -8 5 -11 10 -3 6 -1 10 4 10 6 0 11
-4 11 -10z m-25 -170 c3 -5 -1 -10 -9 -10 -9 0 -16 5 -16 10 0 6 4 10 9 10 6
0 13 -4 16 -10z m-4558 -22 c-3 -8 -6 -5 -6 6 -1 11 2 17 5 13 3 -3 4 -12 1
-19z m-27 -54 c0 -8 -5 -12 -10 -9 -6 4 -8 11 -5 16 9 14 15 11 15 -7z m-28
-27 c3 -13 1 -32 -3 -43 -4 -10 -8 -15 -8 -10 -1 5 -10 1 -22 -10 -20 -18 -21
-18 -35 1 -22 30 -17 45 17 45 17 0 28 4 24 10 -7 11 2 30 14 30 5 0 11 -10
13 -23z m4428 -107 c0 -5 -4 -10 -9 -10 -6 0 -13 5 -16 10 -3 6 1 10 9 10 9 0
16 -4 16 -10z m-2163 -206 c-3 -3 -12 -4 -19 -1 -8 3 -5 6 6 6 11 1 17 -2 13
-5z m2758 -174 c3 -5 1 -10 -4 -10 -6 0 -11 5 -11 10 0 6 2 10 4 10 3 0 8 -4
11 -10z m-340 -140 c-3 -5 -11 -10 -16 -10 -6 0 -7 5 -4 10 3 6 11 10 16 10 6
0 7 -4 4 -10z m-5321 -85 c-4 -8 -11 -12 -16 -9 -6 4 -5 10 3 15 19 12 19 11
13 -6z m5966 -535 c0 -5 -4 -10 -10 -10 -5 0 -10 5 -10 10 0 6 5 10 10 10 6 0
10 -4 10 -10z m-1139 -286 c11 -14 10 -15 -11 -12 -13 1 -25 9 -28 16 -5 17
23 15 39 -4z m16 -41 c2 -6 -7 -10 -22 -9 -14 0 -25 6 -25 12 0 14 43 11 47
-3z m-17 -56 c8 -3 3 -5 -11 -4 -18 1 -25 6 -21 15 2 7 8 9 11 4 3 -5 13 -12
21 -15z m-6 -88 c-7 -11 -34 -12 -34 -1 0 14 11 21 26 15 8 -3 11 -9 8 -14z
m-2908 -10 c19 -22 19 -22 -3 -8 -13 8 -23 17 -23 21 0 12 6 9 26 -13z m3009
1 c3 -11 12 -20 18 -21 7 -1 1 -4 -13 -8 -36 -11 -48 -4 -42 25 5 29 28 32 37
4z m-48 4 c-3 -3 -12 -4 -19 -1 -8 3 -5 6 6 6 11 1 17 -2 13 -5z m278 -54 c3
-5 -1 -10 -10 -10 -9 0 -13 5 -10 10 3 6 8 10 10 10 2 0 7 -4 10 -10z m35 -30
c-20 -13 -53 -13 -45 0 3 6 18 10 33 10 21 0 24 -2 12 -10z m-610 -60 c0 -5
-5 -10 -11 -10 -5 0 -7 5 -4 10 3 6 8 10 11 10 2 0 4 -4 4 -10z m327 -47 c3
-7 21 -13 40 -13 33 0 36 -3 65 -67 54 -119 56 -152 7 -114 -13 10 -51 32 -84
48 -33 17 -77 40 -98 51 -38 20 -39 20 -58 1 -10 -10 -19 -24 -19 -29 0 -6 27
-28 59 -49 33 -21 71 -51 85 -67 l26 -29 19 24 c10 13 23 21 30 17 18 -11 -25
-85 -50 -86 -3 0 -39 31 -80 70 -40 38 -83 72 -94 76 -38 12 -124 56 -136 70
-22 27 -3 44 52 44 50 0 51 1 36 18 -10 10 -17 26 -17 35 0 14 14 16 106 15
76 -2 108 -6 111 -15z m-1177 -153 c0 -5 -4 -10 -10 -10 -5 0 -10 5 -10 10 0
6 5 10 10 10 6 0 10 -4 10 -10z"/>
<path d="M2785 5856 c-68 -41 -117 -123 -136 -229 -11 -59 -10 -74 6 -128 12
-37 32 -75 51 -96 l32 -34 77 6 c96 6 122 19 155 75 52 89 63 133 56 216 -16
177 -122 261 -241 190z m-20 -186 c0 -18 -6 -26 -23 -28 -27 -4 -40 22 -22 44
19 22 45 13 45 -16z"/>
<path d="M3288 5835 c-52 -17 -82 -39 -112 -77 -69 -92 -87 -244 -41 -343 14
-29 36 -60 48 -68 12 -8 58 -17 102 -21 79 -7 80 -6 117 24 114 95 144 324 57
435 -40 50 -112 71 -171 50z m-44 -191 c7 -19 -10 -44 -31 -44 -17 0 -27 24
-19 45 7 20 42 19 50 -1z"/>
<path d="M3122 5243 c3 -17 52 -35 95 -34 12 0 25 -5 29 -11 5 -7 2 -9 -8 -6
-11 5 -14 0 -10 -18 2 -13 7 -24 11 -24 9 1 41 26 41 34 0 18 -47 49 -77 51
-19 1 -39 7 -45 13 -18 18 -40 14 -36 -5z"/>
<path d="M3292 5234 c2 -11 11 -20 22 -22 13 -3 17 1 14 14 -2 11 -11 20 -22
22 -13 3 -17 -1 -14 -14z"/>
<path d="M2765 5190 c3 -5 8 -10 11 -10 2 0 4 5 4 10 0 6 -5 10 -11 10 -5 0
-7 -4 -4 -10z"/>
<path d="M2790 5170 c0 -5 14 -10 32 -10 36 0 35 4 -4 14 -17 4 -28 2 -28 -4z"/>
<path d="M2650 5102 c0 -10 45 -32 64 -32 8 0 19 -7 26 -15 7 -8 23 -15 36
-15 12 0 25 -4 28 -9 3 -4 27 -16 53 -25 130 -47 161 -63 211 -110 27 -25 65
-49 91 -57 27 -8 47 -21 53 -35 6 -13 26 -30 44 -39 19 -9 46 -27 60 -40 37
-35 63 -41 79 -18 9 10 14 13 15 6 0 -14 20 -18 20 -5 0 19 -92 100 -107 95
-15 -5 -59 22 -100 61 -89 87 -99 93 -122 84 -18 -6 -27 -3 -43 17 -11 14 -26
25 -34 25 -8 0 -31 9 -51 20 -21 11 -43 20 -48 20 -6 0 -30 9 -53 20 -23 11
-66 25 -95 30 -28 6 -53 15 -55 20 -4 12 -72 13 -72 2z"/>
<path d="M2815 4780 c-10 -11 -14 -20 -8 -20 5 0 18 9 28 20 10 11 14 20 8 20
-5 0 -18 -9 -28 -20z"/>
<path d="M2881 4766 c-19 -23 4 -28 24 -6 15 17 16 20 3 20 -9 0 -21 -6 -27
-14z"/>
<path d="M3000 4730 c0 -5 5 -10 11 -10 5 0 7 5 4 10 -3 6 -8 10 -11 10 -2 0
-4 -4 -4 -10z"/>
<path d="M3107 4693 c-24 -6 -16 -27 11 -31 17 -3 22 2 22 17 0 21 -2 22 -33
14z"/>
<path d="M3150 4615 c-19 -7 -35 -16 -37 -21 -4 -13 45 -16 52 -4 3 6 19 10
36 10 19 0 29 5 29 15 0 18 -30 18 -80 0z"/>
<path d="M3291 4480 c-21 -18 -21 -21 -6 -27 21 -8 49 8 53 31 5 22 -18 20
-47 -4z"/>
<path d="M3930 4410 c0 -5 5 -10 11 -10 5 0 7 5 4 10 -3 6 -8 10 -11 10 -2 0
-4 -4 -4 -10z"/>
<path d="M3596 4395 c-5 -15 17 -39 27 -28 12 11 8 31 -7 36 -8 3 -17 0 -20
-8z"/>
<path d="M4225 4140 c3 -5 8 -10 11 -10 2 0 4 5 4 10 0 6 -5 10 -11 10 -5 0
-7 -4 -4 -10z"/>
<path d="M4206 4095 c-4 -10 1 -15 14 -15 11 0 20 7 20 15 0 8 -6 15 -14 15
-8 0 -16 -7 -20 -15z"/>
<path d="M4240 4040 c0 -5 5 -10 10 -10 6 0 10 5 10 10 0 6 -4 10 -10 10 -5 0
-10 -4 -10 -10z"/>
<path d="M4600 5710 c0 -5 9 -10 20 -10 11 0 20 5 20 10 0 6 -9 10 -20 10 -11
0 -20 -4 -20 -10z"/>
<path d="M875 3702 c-3 -3 -5 -8 -5 -12 0 -9 59 0 65 10 6 9 -51 10 -60 2z"/>
<path d="M895 3660 c3 -5 13 -10 21 -10 8 0 14 5 14 10 0 6 -9 10 -21 10 -11
0 -17 -4 -14 -10z"/>
<path d="M2755 1867 c-4 -10 -5 -21 -1 -24 10 -10 18 4 13 24 -4 17 -4 17 -12
0z"/>
<path d="M2655 1810 c-3 -5 1 -10 9 -10 9 0 16 5 16 10 0 6 -4 10 -9 10 -6 0
-13 -4 -16 -10z"/>
<path d="M2567 1759 c7 -7 15 -10 18 -7 3 3 -2 9 -12 12 -14 6 -15 5 -6 -5z"/>
<path d="M2430 1640 c0 -5 5 -10 11 -10 5 0 7 5 4 10 -3 6 -8 10 -11 10 -2 0
-4 -4 -4 -10z"/>
<path d="M2250 1560 c-12 -8 -11 -10 7 -10 12 0 25 5 28 10 8 13 -15 13 -35 0z"/>
<path d="M3439 910 c0 -3 -2 -14 -5 -25 -11 -50 -9 -60 12 -63 15 -2 29 7 43
26 29 41 27 56 -6 48 -17 -5 -29 -3 -34 6 -5 7 -9 11 -10 8z"/>
<path d="M2568 633 c7 -3 16 -2 19 1 4 3 -2 6 -13 5 -11 0 -14 -3 -6 -6z"/>
<path d="M2401 614 c0 -11 3 -14 6 -6 3 7 2 16 -1 19 -3 4 -6 -2 -5 -13z"/>
<path d="M2545 600 c-3 -5 -1 -10 4 -10 6 0 11 5 11 10 0 6 -2 10 -4 10 -3 0
-8 -4 -11 -10z"/>
<path d="M2485 590 c3 -5 13 -10 21 -10 8 0 14 5 14 10 0 6 -9 10 -21 10 -11
0 -17 -4 -14 -10z"/>
<path d="M2575 560 c-3 -5 -1 -10 4 -10 6 0 11 5 11 10 0 6 -2 10 -4 10 -3 0
-8 -4 -11 -10z"/>
<path d="M2607 543 c-4 -3 -7 -11 -7 -17 0 -6 5 -5 12 2 6 6 9 14 7 17 -3 3
-9 2 -12 -2z"/>
<path d="M3850 423 c0 -5 5 -15 10 -23 8 -12 10 -11 10 8 0 12 -4 22 -10 22
-5 0 -10 -3 -10 -7z"/>
<path d="M3405 350 c3 -5 13 -10 21 -10 8 0 14 5 14 10 0 6 -9 10 -21 10 -11
0 -17 -4 -14 -10z"/>
<path d="M3767 335 c-9 -8 -22 -15 -30 -15 -8 0 -20 -7 -27 -15 -10 -12 -10
-15 3 -15 8 0 29 -3 47 -6 27 -6 31 -4 29 12 -2 10 0 24 4 31 12 18 -10 25
-26 8z"/>
<path d="M2827 323 c-12 -12 -7 -23 9 -23 9 0 23 -8 30 -17 8 -11 13 -13 14
-5 0 6 -9 21 -20 32 -22 22 -24 23 -33 13z"/>
<path d="M3550 300 c0 -19 3 -21 12 -12 9 9 9 15 0 24 -9 9 -12 7 -12 -12z"/>
<path d="M3830 310 c0 -5 5 -10 11 -10 5 0 7 5 4 10 -3 6 -8 10 -11 10 -2 0
-4 -4 -4 -10z"/>
<path d="M3630 285 c0 -8 7 -15 15 -15 7 0 19 -8 24 -17 10 -17 10 -17 11 1 0
17 -25 45 -42 46 -5 0 -8 -7 -8 -15z"/>
<path d="M2895 270 c3 -5 8 -10 11 -10 2 0 4 5 4 10 0 6 -5 10 -11 10 -5 0 -7
-4 -4 -10z"/>
<path d="M3332 260 c15 -23 17 -23 38 -10 13 9 13 11 0 20 -8 5 -23 10 -33 10
-15 0 -15 -3 -5 -20z"/>
<path d="M1115 4430 c3 -5 13 -10 21 -10 8 0 14 5 14 10 0 6 -9 10 -21 10 -11
0 -17 -4 -14 -10z"/>
<path d="M1065 4400 c-3 -5 3 -10 15 -10 12 0 18 5 15 10 -3 6 -10 10 -15 10
-5 0 -12 -4 -15 -10z"/>
<path d="M40 4335 c0 -8 7 -15 15 -15 9 0 12 6 9 15 -4 8 -10 15 -15 15 -5 0
-9 -7 -9 -15z"/>
<path d="M220 4335 c-24 -14 -24 -14 -4 -15 12 0 24 7 28 15 6 18 7 18 -24 0z"/>
<path d="M376 4334 c-26 -7 -51 -16 -55 -20 -12 -14 84 7 99 21 8 8 12 14 10
14 -3 -1 -27 -7 -54 -15z"/>
<path d="M550 4336 c0 -21 16 -28 42 -20 21 6 21 7 3 20 -24 18 -45 18 -45 0z"/>
<path d="M798 4334 c-16 -8 -28 -17 -28 -19 0 -12 29 -3 50 15 27 23 17 25
-22 4z"/>
<path d="M118 4333 c-21 -2 -38 -9 -38 -15 0 -12 70 -2 85 13 5 6 5 8 0 7 -6
-1 -27 -3 -47 -5z"/>
<path d="M650 4325 c-17 -20 9 -21 36 0 19 14 19 14 -2 15 -12 0 -27 -7 -34
-15z"/>
<path d="M955 4330 c-16 -4 -48 -8 -70 -10 -29 -1 -35 -3 -21 -9 23 -9 115 4
130 19 11 11 5 11 -39 0z"/>
<path d="M1076 4245 c4 -8 8 -15 10 -15 2 0 4 7 4 15 0 8 -4 15 -10 15 -5 0
-7 -7 -4 -15z"/>
<path d="M35 4200 c-16 -7 -11 -9 20 -9 29 -1 36 2 25 9 -17 11 -19 11 -45 0z"/>
<path d="M135 4200 c-23 -5 -16 -7 33 -8 34 0 66 -4 71 -7 5 -3 12 -1 15 4 3
4 -11 11 -32 15 -42 7 -45 6 -87 -4z"/>
<path d="M336 4202 c-14 -13 10 -21 47 -16 63 10 69 24 9 23 -28 -1 -54 -4
-56 -7z"/>
<path d="M495 4201 c-16 -8 -12 -10 20 -11 22 0 78 -2 125 -4 47 -2 94 0 105
5 13 5 -10 8 -61 8 -45 1 -101 3 -125 6 -24 2 -53 1 -64 -4z"/>
<path d="M793 4195 c5 -13 167 -18 167 -6 0 5 -38 11 -85 13 -54 2 -84 -1 -82
-7z"/>
<path d="M1822 2291 c4 -13 18 -16 19 -4 0 4 -5 9 -11 12 -7 2 -11 -2 -8 -8z"/>
<path d="M1885 2211 c-3 -6 -15 -11 -26 -11 -10 0 -19 -4 -19 -10 0 -5 6 -10
13 -10 16 1 52 28 45 36 -3 3 -9 1 -13 -5z"/>
<path d="M1782 2148 c3 -7 15 -15 28 -16 21 -4 22 -2 7 12 -19 19 -40 21 -35
4z"/>
<path d="M1630 2090 c0 -5 9 -10 20 -10 11 0 20 5 20 10 0 6 -9 10 -20 10 -11
0 -20 -4 -20 -10z"/>
<path d="M1810 2060 c0 -5 9 -10 20 -10 11 0 20 5 20 10 0 6 -9 10 -20 10 -11
0 -20 -4 -20 -10z"/>
<path d="M1835 2021 c-15 -7 -11 -9 18 -9 20 0 37 4 37 9 0 11 -28 11 -55 0z"/>
<path d="M1565 1980 c-3 -5 -1 -10 4 -10 6 0 11 5 11 10 0 6 -2 10 -4 10 -3 0
-8 -4 -11 -10z"/>
<path d="M1748 1953 c7 -3 16 -2 19 1 4 3 -2 6 -13 5 -11 0 -14 -3 -6 -6z"/>
<path d="M1770 1930 c0 -5 7 -10 16 -10 8 0 12 5 9 10 -3 6 -10 10 -16 10 -5
0 -9 -4 -9 -10z"/>
<path d="M1640 1910 c0 -5 15 -10 34 -10 19 0 38 5 41 10 4 6 -10 10 -34 10
-23 0 -41 -4 -41 -10z"/>
<path d="M1570 1879 c0 -5 5 -7 10 -4 6 3 10 8 10 11 0 2 -4 4 -10 4 -5 0 -10
-5 -10 -11z"/>
<path d="M1653 1808 c-18 -5 -33 -13 -33 -18 0 -16 46 -12 60 5 17 21 11 24
-27 13z"/>
<path d="M1675 1759 c-9 -14 -2 -20 14 -10 8 6 9 11 3 15 -6 3 -14 1 -17 -5z"/>
<path d="M5240 1682 c0 -19 35 -41 50 -31 13 8 12 12 -4 24 -22 16 -46 20 -46
7z"/>
<path d="M5285 1600 c-3 -5 -2 -10 4 -10 5 0 13 5 16 10 3 6 2 10 -4 10 -5 0
-13 -4 -16 -10z"/>
<path d="M5305 1570 c3 -5 10 -10 16 -10 5 0 9 5 9 10 0 6 -7 10 -16 10 -8 0
-12 -4 -9 -10z"/>
<path d="M5346 1482 c-3 -5 1 -9 9 -9 8 0 12 4 9 9 -3 4 -7 8 -9 8 -2 0 -6 -4
-9 -8z"/>
<path d="M5430 1430 c0 -5 5 -10 11 -10 5 0 7 5 4 10 -3 6 -8 10 -11 10 -2 0
-4 -4 -4 -10z"/>
<path d="M5390 1400 c0 -5 4 -10 9 -10 5 0 18 -3 28 -7 16 -6 16 -5 4 10 -15
19 -41 23 -41 7z"/>
<path d="M5463 1325 c-9 -10 -9 -16 -2 -20 14 -9 22 0 17 18 -2 13 -5 13 -15
2z"/>
<path d="M5340 1322 c0 -9 70 -23 79 -16 8 7 -4 12 -41 19 -24 5 -38 3 -38 -3z"/>
<path d="M5360 1262 c0 -15 26 -22 87 -22 56 0 67 11 16 15 -16 2 -45 6 -65
10 -24 5 -38 4 -38 -3z"/>
<path d="M1368 1233 c7 -3 16 -2 19 1 4 3 -2 6 -13 5 -11 0 -14 -3 -6 -6z"/>
<path d="M5450 1210 c0 -5 5 -10 10 -10 6 0 10 5 10 10 0 6 -4 10 -10 10 -5 0
-10 -4 -10 -10z"/>
<path d="M5430 1140 c0 -5 14 -10 30 -10 17 0 30 5 30 10 0 6 -13 10 -30 10
-16 0 -30 -4 -30 -10z"/>
<path d="M5368 1123 c7 -3 16 -2 19 1 4 3 -2 6 -13 5 -11 0 -14 -3 -6 -6z"/>
<path d="M5431 1104 c-9 -11 -24 -14 -45 -11 l-31 6 32 -16 c31 -15 34 -15 53
2 20 18 26 35 13 35 -5 -1 -14 -8 -22 -16z"/>
<path d="M5430 1064 c-17 -19 4 -26 34 -10 l27 14 -26 4 c-14 3 -30 -1 -35 -8z"/>
<path d="M5320 1040 c0 -11 5 -20 10 -20 6 0 10 9 10 20 0 11 -4 20 -10 20 -5
0 -10 -9 -10 -20z"/>
<path d="M5430 1017 c0 -7 5 -18 11 -24 17 -17 1 -37 -17 -22 -10 8 -17 7 -28
-4 -14 -13 -12 -16 12 -23 15 -4 30 -7 35 -6 4 1 7 -2 7 -8 0 -5 9 -10 20 -10
21 0 27 15 10 25 -5 3 -10 19 -10 35 0 19 -7 33 -20 40 -15 8 -20 8 -20 -3z"/>
<path d="M1228 963 c6 -2 18 -2 25 0 6 3 1 5 -13 5 -14 0 -19 -2 -12 -5z"/>
<path d="M5548 953 c6 -2 18 -2 25 0 6 3 1 5 -13 5 -14 0 -19 -2 -12 -5z"/>
<path d="M5280 912 c0 -5 7 -13 16 -16 10 -4 14 -1 12 6 -5 15 -28 23 -28 10z"/>
<path d="M5369 896 c15 -18 71 -27 71 -10 0 12 -31 24 -64 24 -15 0 -16 -3 -7
-14z"/>
<path d="M1230 890 c0 -5 5 -10 11 -10 5 0 7 5 4 10 -3 6 -8 10 -11 10 -2 0
-4 -4 -4 -10z"/>
<path d="M1131 881 c-20 -13 23 -34 51 -25 21 6 21 7 -3 20 -29 16 -30 16 -48
5z"/>
<path d="M5468 873 c7 -3 16 -2 19 1 4 3 -2 6 -13 5 -11 0 -14 -3 -6 -6z"/>
<path d="M5433 853 c-13 -2 -23 -9 -23 -14 0 -6 -21 -8 -50 -6 -36 4 -50 1
-47 -7 2 -6 15 -11 29 -11 14 -1 37 -8 50 -17 14 -9 44 -17 67 -16 44 0 47 18
3 18 -21 0 -24 2 -12 10 10 6 11 10 3 10 -7 0 -13 5 -13 11 0 7 23 10 65 7 37
-2 66 1 67 7 3 10 -99 16 -139 8z"/>
<path d="M1150 806 c0 -19 -6 -37 -12 -39 -8 -4 -7 -6 4 -6 9 -1 18 -6 20 -13
5 -14 58 -2 58 13 0 6 -7 9 -15 5 -8 -3 -21 -3 -29 0 -18 7 -9 34 11 34 18 0
8 16 -18 30 -17 10 -19 7 -19 -24z"/>
<path d="M5600 790 c11 -20 64 -25 57 -5 -3 5 -14 9 -26 8 -11 -2 -21 2 -21 7
0 6 -5 10 -10 10 -7 0 -7 -6 0 -20z"/>
<path d="M5410 750 c0 -5 15 -10 33 -10 24 0 28 3 17 10 -20 13 -50 13 -50 0z"/>
<path d="M5605 742 c-11 -11 -4 -18 20 -17 35 2 41 12 11 17 -14 3 -28 3 -31
0z"/>
<path d="M1147 723 c-14 -13 -6 -23 19 -23 22 0 25 2 14 15 -14 16 -23 19 -33
8z"/>
<path d="M5590 690 c20 -13 73 -13 65 0 -3 6 -23 10 -43 10 -28 0 -33 -3 -22
-10z"/>
<path d="M1060 680 c0 -5 5 -10 10 -10 6 0 10 5 10 10 0 6 -4 10 -10 10 -5 0
-10 -4 -10 -10z"/>
</g>
</svg>
